<?xml version="1.0" encoding="utf-8"?>
<!-- Generator: Adobe Illustrator 16.0.0, SVG Export Plug-In . SVG Version: 6.00 Build 0)  -->
<!DOCTYPE svg PUBLIC "-//W3C//DTD SVG 1.1//EN" "http://www.w3.org/Graphics/SVG/1.1/DTD/svg11.dtd">
<svg version="1.1" id="Layer_1" xmlns="http://www.w3.org/2000/svg" xmlns:xlink="http://www.w3.org/1999/xlink" x="0px" y="0px"
	 width="354.331px" height="354.331px" viewBox="0 0 354.331 354.331" enable-background="new 0 0 354.331 354.331"
	 xml:space="preserve">
<g>
	<g>
		<g>
			<path fill="none" d="M231.911,256.177h28.284c3.232,0,6.05-1.188,8.397-3.508c2.375-2.348,3.535-5.138,3.535-8.452v-19.515
				c0-3.232-1.16-6.05-3.535-8.396c-2.348-2.376-5.165-3.536-8.397-3.536h-28.284c-3.314,0-6.132,1.16-8.452,3.536
				c-2.348,2.347-3.508,5.164-3.508,8.396v0.662v0.276v3.95v9.751v3.549v1.326c0,3.314,1.16,6.104,3.508,8.452
				C225.779,254.988,228.597,256.177,231.911,256.177z"/>
			<path fill="#33A272" d="M296.683,193.601c-5.247-5.276-11.545-7.928-18.893-7.928h-63.501c-7.348,0-13.645,2.651-18.894,7.928
				c-5.248,5.275-7.872,11.601-7.872,18.948v0.068h117.06v-0.068C304.583,205.201,301.96,198.876,296.683,193.601z"/>
			<path fill="#3AB883" d="M245.832,212.617v0.152h14.363c3.232,0,6.05,1.16,8.397,3.536c2.375,2.347,3.535,5.164,3.535,8.396
				v19.515c0,3.314-1.16,6.104-3.535,8.452c-2.348,2.319-5.165,3.508-8.397,3.508h-14.363v27.068h31.958
				c7.348,0,13.646-2.624,18.893-7.899c5.277-5.249,7.9-11.546,7.9-18.893v-20.924v-5.938v-8.563v-8.411H245.832z"/>
			<path fill="#7AC9A6" d="M231.911,256.177c-3.314,0-6.132-1.188-8.452-3.508c-2.348-2.348-3.508-5.138-3.508-8.452v-1.326v-3.549
				v-9.751v-3.95v-0.276v-0.662c0-3.232,1.16-6.05,3.508-8.396c2.32-2.376,5.138-3.536,8.452-3.536h13.921v-0.152h-58.309v8.411
				h-0.027v4.336v4.227v13.3h0.027v13.563c0,7.347,2.624,13.644,7.872,18.893c5.249,5.275,11.546,7.899,18.894,7.899h31.543v-27.068
				H231.911z"/>
		</g>
		<path fill="none" d="M230.668,257.171h28.284c3.232,0,6.05-1.16,8.396-3.508c2.376-2.32,3.536-5.138,3.536-8.425v-19.514
			c0-3.26-1.16-6.051-3.536-8.397c-2.347-2.376-5.164-3.535-8.396-3.535h-28.284c-3.314,0-6.132,1.159-8.452,3.535
			c-2.348,2.347-3.508,5.138-3.508,8.397v0.662v0.249v3.978v9.75v3.55v1.325c0,3.287,1.16,6.104,3.508,8.425
			C224.536,256.011,227.354,257.171,230.668,257.171z"/>
	</g>
	<g>
		<path fill="#7AC9A6" d="M125.597,211.775c0.663,0.47-0.884,2.956-4.599,7.43c-4.24,4.475-8.77,8.729-13.576,12.789
			c-7.071,5.994-14.474,11.228-22.208,15.703c-7.762,4.529-16.048,8.645-24.804,12.374c-3.825,1.657-6.229,3.729-7.223,6.242
			c-0.981,2.762-0.346,5.553,1.919,8.342c2.444,2.9,5.885,4.972,10.317,6.131c4.903,1.382,8.977,1.327,12.223-0.138
			c8.313-3.535,16.034-7.264,23.201-11.159c6.685-3.646,14.64-9.28,23.823-16.903c2.224-1.741,4.654-3.784,7.278-6.16l9.268-8.631
			c4.806-4.669,9.363-9.585,13.672-14.751c3.163-3.783,5.814-7.775,8.494-11.767H121.26
			C123.663,211.375,125.169,211.527,125.597,211.775z"/>
		<path fill="#33A272" d="M169.997,197.771c0-3.729-1.297-6.878-3.894-9.474c-2.624-2.652-5.8-3.951-9.474-3.951H71.5v26.849h44.981
			c1.934,0,3.453,0.041,4.778,0.082h42.123c0.966-1.436,2.182-2.789,3.08-4.253C168.81,203.13,169.997,200.036,169.997,197.771z"/>
	</g>
	<g>
		<path fill="none" d="M231.911,141.575h28.284c3.232,0,6.05-1.188,8.397-3.508c2.375-2.348,3.535-5.138,3.535-8.451v-19.516
			c0-3.23-1.16-6.049-3.535-8.396c-2.348-2.375-5.165-3.535-8.397-3.535h-28.284c-3.314,0-6.132,1.16-8.452,3.535
			c-2.348,2.348-3.508,5.166-3.508,8.396v0.663v0.276v3.95v9.751v3.549v1.326c0,3.313,1.16,6.104,3.508,8.451
			C225.779,140.388,228.597,141.575,231.911,141.575z"/>
		<path fill="#33A272" d="M296.683,79c-5.247-5.276-11.545-7.927-18.893-7.927h-63.501c-7.348,0-13.645,2.651-18.894,7.927
			c-5.248,5.275-7.899,11.601-7.899,18.949v0.068h117.087v-0.068C304.583,90.601,301.96,84.275,296.683,79z"/>
		<path fill="#3AB883" d="M245.832,98.017v0.152h14.363c3.232,0,6.05,1.16,8.397,3.535c2.375,2.348,3.535,5.166,3.535,8.396v19.516
			c0,3.313-1.16,6.104-3.535,8.451c-2.348,2.32-5.165,3.508-8.397,3.508h-14.363v27.068h31.958c7.348,0,13.646-2.623,18.893-7.898
			c5.277-5.248,7.9-11.546,7.9-18.893V120.93v-5.939v-8.563v-8.41H245.832z"/>
		<path fill="#7AC9A6" d="M231.911,141.575c-3.314,0-6.132-1.188-8.452-3.508c-2.348-2.348-3.508-5.138-3.508-8.451v-1.326v-3.549
			v-9.751v-3.95v-0.276v-0.663c0-3.23,1.16-6.049,3.508-8.396c2.32-2.375,5.138-3.535,8.452-3.535h13.921v-0.152h-58.336v8.41
			h-0.027v4.337v4.227v13.3h0.027v13.563c0,7.347,2.651,13.645,7.899,18.893c5.249,5.275,11.546,7.898,18.894,7.898h31.543v-27.068
			H231.911z"/>
	</g>
	<g>
		<path fill="#33A272" d="M171.338,75.05c-2.624-2.652-5.801-3.978-9.475-3.978H63.09c-3.674,0-6.795,1.325-9.419,3.978
			c-2.624,2.651-3.923,5.8-3.923,9.474c0,3.674,1.299,6.822,3.923,9.446c2.624,2.625,5.745,3.923,9.419,3.923h70.075
			c-0.028,0.041-0.083,0.083-0.111,0.124h37.068c3.37-5.414,5.193-9.957,5.193-13.493C175.315,80.85,173.989,77.701,171.338,75.05z"
			/>
		<path fill="#3AB883" d="M133.054,98.017c-13.368,16.173-29.472,29.361-48.31,39.608V114.99v-3.591v-5.027l-0.068,0.028v60.339
			c1.961-0.581,3.84-1.05,6.063-2.017c6.934-2.983,14.28-7.072,22.07-12.237c7.789-5.192,15.551-11.075,23.34-17.677
			c7.761-6.602,14.694-13.218,20.771-19.818l7.348-8.618c2.402-3.023,4.254-5.76,5.855-8.355H133.054z"/>
		<path fill="#7AC9A6" d="M57.869,114.99v40.092c0,0.056,0,0.166,0,0.304c0,0.332,0.056,0.856,0.138,1.63
			c0.47,3.231,1.962,5.967,4.447,8.176c2.515,2.237,5.47,3.343,8.839,3.343c0.58,0,1.437-0.11,2.569-0.276
			c2.927,0.442,6.685-0.275,10.813-1.519V106.4L57.869,114.99z"/>
	</g>
</g>
</svg>
